<?xml version="1.0" encoding="UTF-8"?>
<!DOCTYPE svg PUBLIC "-//W3C//DTD SVG 1.1//EN" "http://www.w3.org/Graphics/SVG/1.1/DTD/svg11.dtd">
<!-- Creator: CorelDRAW 2020 (64-Bit) -->
<svg xmlns="http://www.w3.org/2000/svg" xml:space="preserve" width="5in" height="5in" version="1.1" style="shape-rendering:geometricPrecision; text-rendering:geometricPrecision; image-rendering:optimizeQuality; fill-rule:evenodd; clip-rule:evenodd"
viewBox="0 0 5000 5000"
 xmlns:xlink="http://www.w3.org/1999/xlink"
 xmlns:xodm="http://www.corel.com/coreldraw/odm/2003">
 <defs>
  <style type="text/css">
   <![CDATA[
    .str0 {stroke:#373435;stroke-width:6.94;stroke-miterlimit:2.61313}
    .fil2 {fill:#FEFEFE}
    .fil0 {fill:#373435}
    .fil1 {fill:#ED3237}
   ]]>
  </style>
 </defs>
 <g id="Layer_x0020_1">
  <metadata id="CorelCorpID_0Corel-Layer"/>
  <g id="_1769691795472">
   <rect class="fil0" transform="matrix(0.788488 -0.367678 0.367678 0.788488 -319.256 1475.11)" width="4872.05" height="4872.05" rx="1131.32" ry="1131.32"/>
   <path class="fil1" d="M2589.35 1552.59c450.32,207.36 764.93,663.41 764.93,1189.43l0 1696.95 -260.39 121.43c-253.34,-61.95 -451.33,-269.1 -499.78,-527.32l0 -1347.17c0,-38.41 -3.94,-75.94 -11.44,-112.21l0 -888.97c0,-44.59 2.27,-88.67 6.69,-132.14zm546.48 3016.64c-2.4,-0.43 -4.8,-0.87 -7.19,-1.31 2.39,0.45 4.79,0.89 7.19,1.31zm-14.28 -2.69c-2.6,-0.52 -5.19,-1.06 -7.78,-1.6 2.59,0.55 5.18,1.08 7.78,1.6zm-13.46 -2.83c-3.15,-0.7 -6.3,-1.42 -9.43,-2.16 3.14,0.74 6.28,1.46 9.43,2.16z"/>
   <path class="fil2" d="M2045.84 1433.58l0 0c152.2,0 298.51,26.43 434.67,74.77 -7.87,57.73 -12.02,116.59 -12.02,176.39l0 649.96c-102.3,-125.2 -257.76,-205.5 -431.09,-205.5l-0.01 0c-306.19,0 -556.71,250.51 -556.71,556.71l0 1857.04 -359.06 0c-24.2,-37.42 -46.17,-76.87 -65.5,-118.33l-318.72 -683.5 0 -999.1c0,-719.64 588.8,-1308.44 1308.44,-1308.44z"/>
   <path class="fil2" d="M4206.56 1151.17c-144.5,-17.75 -287.13,-31.52 -432.16,-34.03 -238.11,-4.13 -433.07,194.94 -433.07,433.07l0 322.02 865.98 -11.81 -2.41 226.15c-2.57,241.37 -213.88,444.82 -463.14,444.82l-286.23 0c-13.99,-416.5 -341.13,-977.48 -853.92,-1091.02 5.17,-677.07 761.07,-1055.53 1283.97,-962.67l-0.1 -0.02c19.2,31.35 36.89,64.04 52.78,98.12l268.3 575.37z"/>
   <path class="fil1 str0" d="M1540.61 2895.27l797.82 0c108.27,0 196.85,88.59 196.85,196.85l0 443.77 -797.82 0c-108.27,0 -196.85,-88.58 -196.85,-196.85l0 -443.77z"/>
  </g>
 </g>
</svg>
