<?xml version="1.0" encoding="UTF-8"?>
<!DOCTYPE svg PUBLIC "-//W3C//DTD SVG 1.1//EN" "http://www.w3.org/Graphics/SVG/1.1/DTD/svg11.dtd">
<!-- Creator: CorelDRAW 2020 (64-Bit) -->
<svg xmlns="http://www.w3.org/2000/svg" xml:space="preserve" width="575px" height="630px" version="1.1" style="shape-rendering:geometricPrecision; text-rendering:geometricPrecision; image-rendering:optimizeQuality; fill-rule:evenodd; clip-rule:evenodd"
viewBox="0 0 575 629.67"
 xmlns:xlink="http://www.w3.org/1999/xlink"
 xmlns:xodm="http://www.corel.com/coreldraw/odm/2003">
 <defs>
  <style type="text/css">
   <![CDATA[
    .str0 {stroke:#373435;stroke-width:2.08;stroke-miterlimit:2.61313}
    .fil0 {fill:none}
   ]]>
  </style>
 </defs>
 <g id="Layer_x0020_1">
  <metadata id="CorelCorpID_0Corel-Layer"/>
  <g id="_2884153170672">
   <path class="fil0 str0" d="M67.45 189.34c-5.11,-1.31 -4.36,-0.67 -4.36,-7.29 0,-1.69 2.69,-2.62 5.13,-4.09l183.72 -109.99 127.67 76.7c-49.47,26.18 -99.04,43.63 -154.36,51.96 -53.53,8.07 -105.12,6.18 -157.8,-7.29zm-49.99 -36.42l4.37 94.18c71.31,7.27 128.38,5.88 198.42,-6.62 74.99,-13.38 163.66,-43.19 216.04,-99.81 17.07,-18.45 30.25,-40.51 36.92,-65.03 0.49,-1.81 1.51,-5.88 1.55,-7.67 -1.69,0.61 -4.44,4.99 -5.67,6.46 -8.07,9.58 -20.54,22.43 -30.46,30.23 -18.22,14.31 -10.68,12.5 -24.55,5.06l-159.23 -95.15 -237.39 138.35z"/>
   <path class="fil0 str0" d="M183.64 451.64c42.2,-8.93 174.48,-58.71 207.59,-87.69 -17.57,35.89 -74.59,104.9 -138.8,136.58 -11.23,-2.78 -67.76,-45.02 -68.79,-48.89zm-89.25 -30.99c28.36,45.2 110.89,117.4 158.43,131.67 137.69,-65.89 191.17,-176.89 216.22,-249.05 40.68,-39.1 57.93,-85.22 57.66,-106.17 -122.14,168.94 -339.1,204.08 -432.31,223.55z"/>
   <path class="fil0 str0" d="M39.3 315.07c2.95,12.64 18.88,46.7 25.25,58.74 457.94,-48.55 511.49,-316.08 499.89,-338.98 -74.02,189.11 -346.66,280.24 -525.14,280.24z"/>
  </g>
 </g>
</svg>
